<?xml version="1.0" ?><!DOCTYPE svg  PUBLIC '-//W3C//DTD SVG 1.1//EN'  'http://www.w3.org/Graphics/SVG/1.1/DTD/svg11.dtd'><svg enable-background="new 0 0 99.176 99.176" height="99.176px" id="Layer_1" version="1.1" viewBox="0 0 99.176 99.176" width="99.176px" xml:space="preserve" xmlns="http://www.w3.org/2000/svg" xmlns:xlink="http://www.w3.org/1999/xlink"><g><path d="M64.581,21.101   c-1.627,1.627-1.627,4.282,0,5.908l5.106,5.107c0.534,0.533,0.539,1.42,0,1.958c-0.551,0.551-1.438,0.548-1.972,0.015l-9.598-9.599   c-1.637-1.636-4.273-1.635-5.908,0c-1.627,1.626-1.635,4.271,0.002,5.905l7.623,7.623c0.541,0.541,0.533,1.424-0.004,1.961   c-0.547,0.549-1.43,0.555-1.971,0.014L46.935,29.069c-1.625-1.627-4.269-1.633-5.906,0.004c-1.634,1.635-1.627,4.277-0.002,5.904   l10.925,10.924c0.541,0.541,0.535,1.421-0.014,1.97c-0.537,0.537-1.418,0.543-1.959,0.002L24.834,22.728   c-1.636-1.635-4.282-1.625-5.908,0c-1.635,1.635-1.635,4.271,0.002,5.908l34.997,34.998l-9.462-1.473   c-2.998-0.635-5.924,1.061-6.566,3.805c-0.621,2.748,1.296,5.492,4.281,6.145c0,0,16.171,3.303,23.083,4.725   c6.917,1.434,14.625,0.25,22.94-8.064c13.759-13.76,4.367-25.613,1.192-28.789L70.501,21.089   C68.874,19.463,66.216,19.466,64.581,21.101z" fill="#FFFFFF" stroke="#58595B" stroke-miterlimit="10" stroke-width="3.4835"/><path d="M64.581,21.101   c-1.627,1.627-1.627,4.282,0,5.908l5.106,5.107c0.534,0.533,0.539,1.42,0,1.958c-0.551,0.551-1.438,0.548-1.972,0.015l-9.598-9.599   c-1.637-1.636-4.273-1.635-5.908,0c-1.627,1.626-1.635,4.271,0.002,5.905l7.623,7.623c0.541,0.541,0.533,1.424-0.004,1.961   c-0.547,0.549-1.43,0.555-1.971,0.014L46.935,29.069c-1.625-1.627-4.269-1.633-5.906,0.004c-1.634,1.635-1.627,4.277-0.002,5.904   l10.925,10.924c0.541,0.541,0.535,1.421-0.014,1.97c-0.537,0.537-1.418,0.543-1.959,0.002L24.834,22.728   c-1.636-1.635-4.282-1.625-5.908,0c-1.635,1.635-1.635,4.271,0.002,5.908l34.997,34.998l-9.462-1.473   c-2.998-0.635-5.924,1.061-6.566,3.805c-0.621,2.748,1.296,5.492,4.281,6.145c0,0,16.171,3.303,23.083,4.725   c6.917,1.434,14.625,0.25,22.94-8.064c13.759-13.76,4.367-25.613,1.192-28.789L70.501,21.089   C68.874,19.463,66.216,19.466,64.581,21.101z" fill="#FFFFFF" stroke="#58595B" stroke-linecap="round" stroke-linejoin="round" stroke-miterlimit="10"/><path clip-rule="evenodd" d="M11.342,44.398c2.236-1.666,5.732-6.215,8.091-2.482   c2.639,4.179,2.592,8.847,4.227,12.857c-0.621,1.164-1.985,1.76-2.821,1.039c-0.608-0.309-0.169-0.881-0.23-1.326   c-1.029-3.283-1.366-6.742-3.14-9.835c-4.698,5.691-8.413,13.736-7.566,20.427c0.422,3.355,2.066,7.943,4.489,10.133   c1.14,1.031,2.615,0.855,3.36,2.336c0.387,0.787-1.186,1.508-1.894,1.758c-3.853-1.838-6.049-5.002-7.183-8.17   C5.945,63.483,7.771,54.659,13.5,46.19c-2.666,1.227-5.036,3.611-7.529,5.531c-0.764-0.09-1.387,0.395-2.274-0.168   C4.957,48.196,8.348,46.63,11.342,44.398L11.342,44.398z" fill="#939598" fill-rule="evenodd"/></g></svg>